<?xml version="1.0" encoding="utf-8"?><!-- Generator: Iparigrafika Gear Generator by Abel Vincze http://geargenerator.com/ --><svg version="1.2" class="svggear" xmlns="http://www.w3.org/2000/svg" xmlns:xlink="http://www.w3.org/1999/xlink" x="0px" y="0px" width="88px" height="88px" viewBox="-44 -44 88 88" overflow="scroll" xml:space="preserve"><polygon id="gearpoly0" data-id="0" class="gear" fill="#ddd" stroke="#444" stroke-width="1" stroke-miterlimit="10" points="30.3125,0 33.4178,-0.0001 33.4489,-0.0011 33.5082,-0.0048 33.5954,-0.0128 33.7105,-0.0266 33.8531,-0.048 34.0229,-0.0785 34.2193,-0.1198 34.442,-0.1733 34.6903,-0.2407 34.9635,-0.3234 35.2611,-0.423 35.5822,-0.541 35.926,-0.6788 36.2915,-0.8379 36.6779,-1.0195 37.084,-1.225 37.5088,-1.4557 37.9512,-1.7129 38.4099,-1.9978 38.8837,-2.3115 39.3714,-2.6551 39.8714,-3.0298 40.3824,-3.4364 40.9031,-3.8759 41.4317,-4.3492 41.9669,-4.8572 42.5071,-5.4006 43.0505,-5.9801 43.2576,-6.5451 43.0613,-7.7324 42.6832,-8.2007 41.9821,-8.5743 41.2958,-8.9148 40.6255,-9.2234 39.9726,-9.5013 39.3382,-9.7498 38.7234,-9.9702 38.1294,-10.1638 37.5571,-10.3322 37.0075,-10.4766 36.4815,-10.5986 35.9798,-10.6996 35.5033,-10.7813 35.0527,-10.8451 34.6284,-10.8926 34.2311,-10.9255 33.8613,-10.9452 33.5193,-10.9536 33.2055,-10.9521 32.9201,-10.9424 32.6634,-10.9263 32.4353,-10.9052 32.2361,-10.881 32.0656,-10.8552 31.9237,-10.8296 31.8103,-10.8056 31.7251,-10.7851 31.6678,-10.7695 31.638,-10.7605 28.698,-9.7606 26.2514,-15.1562 28.9407,-16.709 28.967,-16.7254 29.0165,-16.7583 29.0881,-16.8088 29.1809,-16.8783 29.2937,-16.9681 29.4254,-17.0794 29.5749,-17.2134 29.741,-17.371 29.9223,-17.5535 30.1176,-17.7619 30.3255,-17.9969 30.5446,-18.2597 30.7734,-18.5509 31.0104,-18.8714 31.2542,-19.2218 31.5032,-19.6029 31.7557,-20.0151 32.0102,-20.459 32.2651,-20.9351 32.5186,-21.4437 32.769,-21.9851 33.0148,-22.5595 33.254,-23.1672 33.4852,-23.8081 33.7063,-24.4824 33.9158,-25.1899 34.1119,-25.9306 34.2928,-26.7041 34.1897,-27.2971 33.4259,-28.2271 32.8644,-28.4436 32.0704,-28.4166 31.3058,-28.3684 30.571,-28.3005 29.8666,-28.2147 29.193,-28.1127 28.5504,-27.9961 27.9391,-27.8668 27.3593,-27.7265 26.8111,-27.5767 26.2946,-27.4194 25.8096,-27.2561 25.3561,-27.0885 24.9339,-26.9185 24.5428,-26.7475 24.1823,-26.5773 23.8521,-26.4095 23.5518,-26.2457 23.2808,-26.0875 23.0385,-25.9365 22.8242,-25.7941 22.6372,-25.6619 22.4768,-25.5413 22.342,-25.4337 22.2319,-25.3405 22.1457,-25.2631 22.0822,-25.2027 22.0404,-25.1605 22.0191,-25.1379 19.9729,-22.802 15.1563,-26.2514 16.7089,-28.9407 16.7235,-28.9682 16.7499,-29.0213 16.7867,-29.1009 16.8322,-29.2075 16.885,-29.3417 16.9434,-29.5039 17.0059,-29.6947 17.0709,-29.9143 17.1367,-30.163 17.2017,-30.441 17.2642,-30.7485 17.3225,-31.0856 17.3751,-31.4522 17.4201,-31.8483 17.456,-32.2737 17.4811,-32.7282 17.4937,-33.2114 17.4921,-33.7232 17.4748,-34.2629 17.44,-34.8301 17.3863,-35.4242 17.3118,-36.0445 17.2153,-36.6904 17.0949,-37.361 16.9493,-38.0556 16.777,-38.773 16.5765,-39.5125 16.3464,-40.2729 15.9606,-40.7348 14.8342,-41.1584 14.2396,-41.0651 13.5655,-40.6447 12.9274,-40.2206 12.325,-39.7945 11.7579,-39.3679 11.2255,-38.9428 10.7273,-38.5206 10.2625,-38.1029 9.8306,-37.6915 9.4308,-37.2877 9.0621,-36.8932 8.7238,-36.5093 8.4148,-36.1374 8.1342,-35.779 7.8809,-35.4354 7.6538,-35.1078 7.4518,-34.7974 7.2736,-34.5054 7.118,-34.2329 6.9836,-33.9809 6.8693,-33.7504 6.7735,-33.5424 6.6948,-33.3578 6.6319,-33.1972 6.5832,-33.0615 6.5472,-32.9513 6.5224,-32.8672 6.5072,-32.8098 6.5002,-32.7796 5.8961,-29.7335 0,-30.3125 -0.0001,-33.4178 -0.0011,-33.4489 -0.0048,-33.5082 -0.0128,-33.5954 -0.0266,-33.7105 -0.048,-33.8531 -0.0785,-34.0229 -0.1198,-34.2193 -0.1733,-34.442 -0.2407,-34.6903 -0.3234,-34.9635 -0.423,-35.2611 -0.541,-35.5822 -0.6788,-35.926 -0.8379,-36.2915 -1.0195,-36.6779 -1.225,-37.084 -1.4557,-37.5088 -1.7129,-37.9512 -1.9978,-38.4099 -2.3115,-38.8837 -2.6551,-39.3714 -3.0298,-39.8714 -3.4364,-40.3824 -3.8759,-40.9031 -4.3492,-41.4317 -4.8572,-41.9669 -5.4006,-42.5071 -5.9801,-43.0505 -6.5451,-43.2576 -7.7324,-43.0613 -8.2007,-42.6832 -8.5743,-41.9821 -8.9148,-41.2958 -9.2234,-40.6255 -9.5013,-39.9726 -9.7498,-39.3382 -9.9702,-38.7234 -10.1638,-38.1294 -10.3322,-37.5571 -10.4766,-37.0075 -10.5986,-36.4815 -10.6996,-35.9798 -10.7813,-35.5033 -10.8451,-35.0527 -10.8926,-34.6284 -10.9255,-34.2311 -10.9452,-33.8613 -10.9536,-33.5193 -10.9521,-33.2055 -10.9424,-32.9201 -10.9263,-32.6634 -10.9052,-32.4353 -10.881,-32.2361 -10.8552,-32.0656 -10.8296,-31.9237 -10.8056,-31.8103 -10.7851,-31.7251 -10.7695,-31.6678 -10.7605,-31.638 -9.7606,-28.698 -15.1562,-26.2514 -16.709,-28.9407 -16.7254,-28.967 -16.7583,-29.0165 -16.8088,-29.0881 -16.8783,-29.1809 -16.9681,-29.2937 -17.0794,-29.4254 -17.2134,-29.5749 -17.371,-29.741 -17.5535,-29.9223 -17.7619,-30.1176 -17.9969,-30.3255 -18.2597,-30.5446 -18.5509,-30.7734 -18.8714,-31.0104 -19.2218,-31.2542 -19.6029,-31.5032 -20.0151,-31.7557 -20.459,-32.0102 -20.9351,-32.2651 -21.4437,-32.5186 -21.9851,-32.769 -22.5595,-33.0148 -23.1672,-33.254 -23.8081,-33.4852 -24.4824,-33.7063 -25.1899,-33.9158 -25.9306,-34.1119 -26.7041,-34.2928 -27.2971,-34.1897 -28.2271,-33.4259 -28.4436,-32.8644 -28.4166,-32.0704 -28.3684,-31.3058 -28.3005,-30.571 -28.2147,-29.8666 -28.1127,-29.193 -27.9961,-28.5504 -27.8668,-27.9391 -27.7265,-27.3593 -27.5767,-26.8111 -27.4194,-26.2946 -27.2561,-25.8096 -27.0885,-25.3561 -26.9185,-24.9339 -26.7475,-24.5428 -26.5773,-24.1823 -26.4095,-23.8521 -26.2457,-23.5518 -26.0875,-23.2808 -25.9365,-23.0385 -25.7941,-22.8242 -25.6619,-22.6372 -25.5413,-22.4768 -25.4337,-22.342 -25.3405,-22.2319 -25.2631,-22.1457 -25.2027,-22.0822 -25.1605,-22.0404 -25.1379,-22.0191 -22.802,-19.9729 -26.2514,-15.1562 -28.9407,-16.7089 -28.9682,-16.7235 -29.0213,-16.7499 -29.1009,-16.7867 -29.2075,-16.8322 -29.3417,-16.885 -29.5039,-16.9434 -29.6947,-17.0059 -29.9143,-17.0709 -30.163,-17.1367 -30.441,-17.2017 -30.7485,-17.2642 -31.0856,-17.3225 -31.4522,-17.3751 -31.8483,-17.4201 -32.2737,-17.456 -32.7282,-17.4811 -33.2114,-17.4937 -33.7232,-17.4921 -34.2629,-17.4748 -34.8301,-17.44 -35.4242,-17.3863 -36.0445,-17.3118 -36.6904,-17.2153 -37.361,-17.0949 -38.0556,-16.9493 -38.773,-16.777 -39.5125,-16.5765 -40.2729,-16.3464 -40.7348,-15.9606 -41.1584,-14.8342 -41.0651,-14.2396 -40.6447,-13.5655 -40.2206,-12.9274 -39.7945,-12.325 -39.3679,-11.7579 -38.9428,-11.2255 -38.5206,-10.7273 -38.1029,-10.2625 -37.6915,-9.8306 -37.2877,-9.4308 -36.8932,-9.0621 -36.5093,-8.7238 -36.1374,-8.4148 -35.779,-8.1342 -35.4354,-7.8809 -35.1078,-7.6538 -34.7974,-7.4518 -34.5054,-7.2736 -34.2329,-7.118 -33.9809,-6.9836 -33.7504,-6.8693 -33.5424,-6.7735 -33.3578,-6.6948 -33.1972,-6.6319 -33.0615,-6.5832 -32.9513,-6.5472 -32.8672,-6.5224 -32.8098,-6.5072 -32.7796,-6.5002 -29.7335,-5.8961 -30.3125,0 -33.4178,0.0001 -33.4489,0.0011 -33.5082,0.0048 -33.5954,0.0128 -33.7105,0.0266 -33.8531,0.048 -34.0229,0.0785 -34.2193,0.1198 -34.442,0.1733 -34.6903,0.2407 -34.9635,0.3234 -35.2611,0.423 -35.5822,0.541 -35.926,0.6788 -36.2915,0.8379 -36.6779,1.0195 -37.084,1.225 -37.5088,1.4557 -37.9512,1.7129 -38.4099,1.9978 -38.8837,2.3115 -39.3714,2.6551 -39.8714,3.0298 -40.3824,3.4364 -40.9031,3.8759 -41.4317,4.3492 -41.9669,4.8572 -42.5071,5.4006 -43.0505,5.9801 -43.2576,6.5451 -43.0613,7.7324 -42.6832,8.2007 -41.9821,8.5743 -41.2958,8.9148 -40.6255,9.2234 -39.9726,9.5013 -39.3382,9.7498 -38.7234,9.9702 -38.1294,10.1638 -37.5571,10.3322 -37.0075,10.4766 -36.4815,10.5986 -35.9798,10.6996 -35.5033,10.7813 -35.0527,10.8451 -34.6284,10.8926 -34.2311,10.9255 -33.8613,10.9452 -33.5193,10.9536 -33.2055,10.9521 -32.9201,10.9424 -32.6634,10.9263 -32.4353,10.9052 -32.2361,10.881 -32.0656,10.8552 -31.9237,10.8296 -31.8103,10.8056 -31.7251,10.7851 -31.6678,10.7695 -31.638,10.7605 -28.698,9.7606 -26.2514,15.1562 -28.9407,16.709 -28.967,16.7254 -29.0165,16.7583 -29.0881,16.8088 -29.1809,16.8783 -29.2937,16.9681 -29.4254,17.0794 -29.5749,17.2134 -29.741,17.371 -29.9223,17.5535 -30.1176,17.7619 -30.3255,17.9969 -30.5446,18.2597 -30.7734,18.5509 -31.0104,18.8714 -31.2542,19.2218 -31.5032,19.6029 -31.7557,20.0151 -32.0102,20.459 -32.2651,20.9351 -32.5186,21.4437 -32.769,21.9851 -33.0148,22.5595 -33.254,23.1672 -33.4852,23.8081 -33.7063,24.4824 -33.9158,25.1899 -34.1119,25.9306 -34.2928,26.7041 -34.1897,27.2971 -33.4259,28.2271 -32.8644,28.4436 -32.0704,28.4166 -31.3058,28.3684 -30.571,28.3005 -29.8666,28.2147 -29.193,28.1127 -28.5504,27.9961 -27.9391,27.8668 -27.3593,27.7265 -26.8111,27.5767 -26.2946,27.4194 -25.8096,27.2561 -25.3561,27.0885 -24.9339,26.9185 -24.5428,26.7475 -24.1823,26.5773 -23.8521,26.4095 -23.5518,26.2457 -23.2808,26.0875 -23.0385,25.9365 -22.8242,25.7941 -22.6372,25.6619 -22.4768,25.5413 -22.342,25.4337 -22.2319,25.3405 -22.1457,25.2631 -22.0822,25.2027 -22.0404,25.1605 -22.0191,25.1379 -19.9729,22.802 -15.1563,26.2514 -16.7089,28.9407 -16.7235,28.9682 -16.7499,29.0213 -16.7867,29.1009 -16.8322,29.2075 -16.885,29.3417 -16.9434,29.5039 -17.0059,29.6947 -17.0709,29.9143 -17.1367,30.163 -17.2017,30.441 -17.2642,30.7485 -17.3225,31.0856 -17.3751,31.4522 -17.4201,31.8483 -17.456,32.2737 -17.4811,32.7282 -17.4937,33.2114 -17.4921,33.7232 -17.4748,34.2629 -17.44,34.8301 -17.3863,35.4242 -17.3118,36.0445 -17.2153,36.6904 -17.0949,37.361 -16.9493,38.0556 -16.777,38.773 -16.5765,39.5125 -16.3464,40.2729 -15.9606,40.7348 -14.8342,41.1584 -14.2396,41.0651 -13.5655,40.6447 -12.9274,40.2206 -12.325,39.7945 -11.7579,39.3679 -11.2255,38.9428 -10.7273,38.5206 -10.2625,38.1029 -9.8306,37.6915 -9.4308,37.2877 -9.0621,36.8932 -8.7238,36.5093 -8.4148,36.1374 -8.1342,35.779 -7.8809,35.4354 -7.6538,35.1078 -7.4518,34.7974 -7.2736,34.5054 -7.118,34.2329 -6.9836,33.9809 -6.8693,33.7504 -6.7735,33.5424 -6.6948,33.3578 -6.6319,33.1972 -6.5832,33.0615 -6.5472,32.9513 -6.5224,32.8672 -6.5072,32.8098 -6.5002,32.7796 -5.8961,29.7335 0,30.3125 0.0001,33.4178 0.0011,33.4489 0.0048,33.5082 0.0128,33.5954 0.0266,33.7105 0.048,33.8531 0.0785,34.0229 0.1198,34.2193 0.1733,34.442 0.2407,34.6903 0.3234,34.9635 0.423,35.2611 0.541,35.5822 0.6788,35.926 0.8379,36.2915 1.0195,36.6779 1.225,37.084 1.4557,37.5088 1.7129,37.9512 1.9978,38.4099 2.3115,38.8837 2.6551,39.3714 3.0298,39.8714 3.4364,40.3824 3.8759,40.9031 4.3492,41.4317 4.8572,41.9669 5.4006,42.5071 5.9801,43.0505 6.5451,43.2576 7.7324,43.0613 8.2007,42.6832 8.5743,41.9821 8.9148,41.2958 9.2234,40.6255 9.5013,39.9726 9.7498,39.3382 9.9702,38.7234 10.1638,38.1294 10.3322,37.5571 10.4766,37.0075 10.5986,36.4815 10.6996,35.9798 10.7813,35.5033 10.8451,35.0527 10.8926,34.6284 10.9255,34.2311 10.9452,33.8613 10.9536,33.5193 10.9521,33.2055 10.9424,32.9201 10.9263,32.6634 10.9052,32.4353 10.881,32.2361 10.8552,32.0656 10.8296,31.9237 10.8056,31.8103 10.7851,31.7251 10.7695,31.6678 10.7605,31.638 9.7606,28.698 15.1562,26.2514 16.709,28.9407 16.7254,28.967 16.7583,29.0165 16.8088,29.0881 16.8783,29.1809 16.9681,29.2937 17.0794,29.4254 17.2134,29.5749 17.371,29.741 17.5535,29.9223 17.7619,30.1176 17.9969,30.3255 18.2597,30.5446 18.5509,30.7734 18.8714,31.0104 19.2218,31.2542 19.6029,31.5032 20.0151,31.7557 20.459,32.0102 20.9351,32.2651 21.4437,32.5186 21.9851,32.769 22.5595,33.0148 23.1672,33.254 23.8081,33.4852 24.4824,33.7063 25.1899,33.9158 25.9306,34.1119 26.7041,34.2928 27.2971,34.1897 28.2271,33.4259 28.4436,32.8644 28.4166,32.0704 28.3684,31.3058 28.3005,30.571 28.2147,29.8666 28.1127,29.193 27.9961,28.5504 27.8668,27.9391 27.7265,27.3593 27.5767,26.8111 27.4194,26.2946 27.2561,25.8096 27.0885,25.3561 26.9185,24.9339 26.7475,24.5428 26.5773,24.1823 26.4095,23.8521 26.2457,23.5518 26.0875,23.2808 25.9365,23.0385 25.7941,22.8242 25.6619,22.6372 25.5413,22.4768 25.4337,22.342 25.3405,22.2319 25.2631,22.1457 25.2027,22.0822 25.1605,22.0404 25.1379,22.0191 22.802,19.9729 26.2514,15.1563 28.9407,16.7089 28.9682,16.7235 29.0213,16.7499 29.1009,16.7867 29.2075,16.8322 29.3417,16.885 29.5039,16.9434 29.6947,17.0059 29.9143,17.0709 30.163,17.1367 30.441,17.2017 30.7485,17.2642 31.0856,17.3225 31.4522,17.3751 31.8483,17.4201 32.2737,17.456 32.7282,17.4811 33.2114,17.4937 33.7232,17.4921 34.2629,17.4748 34.8301,17.44 35.4242,17.3863 36.0445,17.3118 36.6904,17.2153 37.361,17.0949 38.0556,16.9493 38.773,16.777 39.5125,16.5765 40.2729,16.3464 40.7348,15.9606 41.1584,14.8342 41.0651,14.2396 40.6447,13.5655 40.2206,12.9274 39.7945,12.325 39.3679,11.7579 38.9428,11.2255 38.5206,10.7273 38.1029,10.2625 37.6915,9.8306 37.2877,9.4308 36.8932,9.0621 36.5093,8.7238 36.1374,8.4148 35.779,8.1342 35.4354,7.8809 35.1078,7.6538 34.7974,7.4518 34.5054,7.2736 34.2329,7.118 33.9809,6.9836 33.7504,6.8693 33.5424,6.7735 33.3578,6.6948 33.1972,6.6319 33.0615,6.5832 32.9513,6.5472 32.8672,6.5224 32.8098,6.5072 32.7796,6.5002 29.7335,5.8961 "/><g class="guides"><polyline fill="none" stroke="#444" stroke-width="0.5" stroke-miterlimit="10" points="10,0 -10,0"/><polyline fill="none" stroke="#444" stroke-width="0.5" stroke-miterlimit="10" points="0,10 0,-10"/></g><circle fill="#c00" class="firstmarker" stroke="none" stroke-miterlimit="10" cx="36.9973" cy="-6.1195" r="2.4531"/><g class="geartext"><g class="text"><polyline fill="none" stroke="#444" stroke-width="0.5" stroke-linecap="square" stroke-miterlimit="1"  points="-13.65 -18.63 -14.23 -18.19 -14.79 -17.74 -15.33 -17.27 -15.87 -16.78 "/><polyline fill="none" stroke="#444" stroke-width="0.5" stroke-linecap="square" stroke-miterlimit="1"  points="-13.86 -16.63 -15.71 -18.85 "/><polyline fill="none" stroke="#444" stroke-width="0.5" stroke-linecap="square" stroke-miterlimit="1"  points="-14.5 -19.79 -14.67 -18.76 -14.79 -17.74 -14.85 -16.73 -14.87 -15.73 "/><polyline fill="none" stroke="#444" stroke-width="0.5" stroke-linecap="square" stroke-miterlimit="1"  points="-12.8 -17.47 -13.78 -17.63 -14.79 -17.74 -15.81 -17.81 -16.86 -17.83 "/><polyline fill="none" stroke="#444" stroke-width="0.5" stroke-linecap="square" stroke-miterlimit="1"  points="-9.92 -19.24 -10.17 -18.29 -10.74 -17.97 -11.68 -18.23 -13.24 -20.66 -12.96 -21.68 -12.27 -22.08 -11.25 -21.81 -9.92 -19.24 "/><polyline fill="none" stroke="#444" stroke-width="0.5" stroke-linecap="square" stroke-miterlimit="1"  points="-3.33 -25.04 -2.76 -20.75 -3.58 -21.72 -4.47 -22.66 -5.42 -23.56 -6.43 -24.43 -5.33 -20.24 "/><polyline fill="none" stroke="#444" stroke-width="0.5" stroke-linecap="square" stroke-miterlimit="1"  points="1.31 -23.78 0.57 -23.81 -0.17 -23.82 -0.92 -23.8 -1.66 -23.76 "/><polyline fill="none" stroke="#444" stroke-width="0.5" stroke-linecap="square" stroke-miterlimit="1"  points="1.23 -22.34 0.54 -22.37 -0.16 -22.37 -0.86 -22.36 -1.56 -22.32 "/><polyline fill="none" stroke="#444" stroke-width="0.5" stroke-linecap="square" stroke-miterlimit="1"  points="2.88 -24.37 3.75 -24.98 3.11 -20.7 "/><polyline fill="none" stroke="#444" stroke-width="0.5" stroke-linecap="square" stroke-miterlimit="1"  points="3.75 -20.59 3.11 -20.7 2.46 -20.79 "/><polyline fill="none" stroke="#444" stroke-width="0.5" stroke-linecap="square" stroke-miterlimit="1"  points="7.52 -19.53 6.91 -19.76 6.29 -19.96 5.66 -20.15 5.03 -20.32 5.38 -21.72 6.25 -22.23 6.94 -22.03 7.62 -21.8 8.56 -22.23 8.82 -22.9 8.34 -23.84 7.59 -24.09 6.83 -24.32 5.9 -23.82 "/><polyline fill="none" stroke="#444" stroke-width="0.5" stroke-linecap="square" stroke-miterlimit="1"  points="12.78 -19.24 13.38 -18.83 13.96 -18.4 14.53 -17.96 15.55 -18.04 16.02 -18.59 15.89 -19.64 15.27 -20.13 14.63 -20.59 13.98 -21.04 11.58 -17.43 "/><polyline fill="none" stroke="#444" stroke-width="0.5" stroke-linecap="square" stroke-miterlimit="1"  points="14.63 -14.97 16.65 -17.03 "/><polyline fill="none" stroke="#444" stroke-width="0.5" stroke-linecap="square" stroke-miterlimit="1"  points="17.15 -17.55 17.66 -18.07 "/><polyline fill="none" stroke="#444" stroke-width="0.5" stroke-linecap="square" stroke-miterlimit="1"  points="17.75 -12.39 16.78 -12.51 16.95 -13.48 19.77 -15.72 "/><polyline fill="none" stroke="#444" stroke-width="0.5" stroke-linecap="square" stroke-miterlimit="1"  points="19.53 -13.63 19.09 -14.24 18.64 -14.82 18.17 -15.4 17.68 -15.96 "/><polyline fill="none" stroke="#444" stroke-width="0.5" stroke-linecap="square" stroke-miterlimit="1"  points="19.09 -8.57 18.82 -9.16 18.52 -9.75 18.21 -10.32 18.49 -11.26 19.73 -12.01 20.72 -11.74 21.08 -11.09 21.41 -10.43 21.73 -9.75 "/><polyline fill="none" stroke="#444" stroke-width="0.5" stroke-linecap="square" stroke-miterlimit="1"  points="20.94 -7.87 21.86 -7.44 22.78 -6.97 22.98 -6.25 22.46 -5.36 20.36 -4.86 "/><polyline fill="none" stroke="#444" stroke-width="0.5" stroke-linecap="square" stroke-miterlimit="1"  points="19.59 -7.36 23.65 -8.88 "/><polyline fill="none" stroke="#444" stroke-width="0.5" stroke-linecap="square" stroke-miterlimit="1"  points="20.93 -0.33 20.93 0.33 20.91 0.98 20.87 1.63 21.52 2.36 24.39 2.68 25.18 1.97 25.23 1.18 25.26 0.39 25.26 -0.39 "/><polyline fill="none" stroke="#444" stroke-width="0.5" stroke-linecap="square" stroke-miterlimit="1"  points="25.26 0.39 20.93 0.33 "/><polyline fill="none" stroke="#444" stroke-width="0.5" stroke-linecap="square" stroke-miterlimit="1"  points="22.78 6.97 22.98 6.25 23.17 5.53 23.33 4.8 23.47 4.07 "/><polyline fill="none" stroke="#444" stroke-width="0.5" stroke-linecap="square" stroke-miterlimit="1"  points="21.39 6.54 21.59 5.87 21.76 5.2 21.91 4.51 22.04 3.83 "/><polyline fill="none" stroke="#444" stroke-width="0.5" stroke-linecap="square" stroke-miterlimit="1"  points="22.97 8.63 23.36 9.62 23.05 10.34 22.71 11.06 21.72 11.43 21.08 11.09 20.76 10.11 19.8 10.42 19.16 10.08 18.82 9.16 19.09 8.57 19.35 7.97 20.27 7.61 "/><polyline fill="none" stroke="#444" stroke-width="0.5" stroke-linecap="square" stroke-miterlimit="1"  points="21.07 9.46 20.76 10.11 "/><polyline fill="none" stroke="#444" stroke-width="0.5" stroke-linecap="square" stroke-miterlimit="1"  points="17.62 14.93 17.14 15.48 16.65 16 16.14 16.52 16.11 17.55 16.59 18.08 17.66 18.07 18.21 17.51 18.75 16.93 19.27 16.33 15.97 13.53 "/><polyline fill="none" stroke="#444" stroke-width="0.5" stroke-linecap="square" stroke-miterlimit="1"  points="12.55 20.24 13.18 19.84 13.79 19.42 14.39 18.98 14.98 18.52 "/><polyline fill="none" stroke="#444" stroke-width="0.5" stroke-linecap="square" stroke-miterlimit="1"  points="11.79 19.01 12.38 18.64 12.96 18.24 13.52 17.83 14.07 17.39 "/><polyline fill="none" stroke="#444" stroke-width="0.5" stroke-linecap="square" stroke-miterlimit="1"  points="8.04 20.88 8.69 20.62 9.33 20.34 9.96 20.03 10.58 19.71 10.39 20.9 10.13 22.08 9.81 23.28 8.13 19.29 "/><polyline fill="none" stroke="#444" stroke-width="0.5" stroke-linecap="square" stroke-miterlimit="1"  points="3.43 22.84 2.71 22.94 1.99 23.01 1.27 23.06 0.57 23.81 0.59 24.53 1.39 25.22 2.18 25.17 2.97 25.09 3.75 24.98 3.11 20.7 "/><polyline fill="none" stroke="#444" stroke-width="0.5" stroke-linecap="square" stroke-miterlimit="1"  points="-0.81 20.91 -0.86 22.36 -1.66 23.76 -2.55 25.13 -3.14 23.61 -3.64 22.07 -3.41 20.65 "/><polyline fill="none" stroke="#444" stroke-width="0.5" stroke-linecap="square" stroke-miterlimit="1"  points="-0.86 22.36 -1.56 22.32 -2.26 22.26 -2.95 22.18 -3.64 22.07 "/><polyline fill="none" stroke="#444" stroke-width="0.5" stroke-linecap="square" stroke-miterlimit="1"  points="-8.19 22.36 -7.49 22.61 -6.78 22.83 -6.06 23.03 -5.34 23.21 "/><polyline fill="none" stroke="#444" stroke-width="0.5" stroke-linecap="square" stroke-miterlimit="1"  points="-7.69 21.01 -7.03 21.24 -6.37 21.45 -5.69 21.64 -5.02 21.8 "/><polyline fill="none" stroke="#444" stroke-width="0.5" stroke-linecap="square" stroke-miterlimit="1"  points="-10.74 17.97 -10.17 18.29 -9.59 18.6 -9.01 18.89 -8.41 19.17 -8.99 20.49 -9.94 20.85 -10.58 20.53 -11.22 20.19 -12.22 20.45 -12.59 21.06 -12.27 22.08 -11.58 22.45 -10.87 22.8 -9.86 22.47 "/><polyline fill="none" stroke="#444" stroke-width="0.5" stroke-linecap="square" stroke-miterlimit="1"  points="-14.29 20.83 -14.93 20.38 -15.56 19.9 -16.17 19.4 -16.77 18.89 -14.79 17.74 -12.89 16.49 "/></g></g><g class="guides gearguides" opacity="0.2"><circle class="pitch" fill="none" stroke="#f00" stroke-miterlimit="10" cx="0" cy="0" r="37.5"/><circle class="outer" fill="none" stroke="#ccc" stroke-miterlimit="10" stroke-dasharray="2,2" cx="0" cy="0" r="43.75"/><circle class="base" fill="none" stroke="#00f" stroke-miterlimit="10" stroke-dasharray="2,2" cx="0" cy="0" r="33.41"/></g></svg>